<?xml version="1.0" standalone="no"?>
<!DOCTYPE svg PUBLIC "-//W3C//DTD SVG 20010904//EN"
 "http://www.w3.org/TR/2001/REC-SVG-20010904/DTD/svg10.dtd">
<svg version="1.0" xmlns="http://www.w3.org/2000/svg"
 width="612.000000pt" height="626.000000pt" viewBox="0 0 612.000000 626.000000"
 preserveAspectRatio="xMidYMid meet">

<g transform="translate(0.000000,626.000000) scale(0.100000,-0.100000)"
fill="#000000" stroke="none">
<path d="M2915 4480 c0 -566 -3 -1030 -7 -1030 -4 0 -22 9 -40 20 -45 27 -48
26 -48 -20 0 -37 -2 -39 -37 -46 -295 -50 -576 -205 -809 -446 -103 -106 -146
-160 -224 -278 -262 -400 -346 -893 -224 -1314 30 -106 82 -229 124 -298 62
-100 62 -103 6 -43 -153 164 -278 422 -323 669 -23 122 -22 366 1 501 57 336
228 678 462 928 30 31 54 59 54 62 0 3 -10 5 -22 5 -20 0 -20 1 -4 18 16 18
11 21 -103 75 -66 32 -124 57 -130 57 -5 0 -17 10 -25 22 -15 20 -14 24 7 47
12 14 -5 2 -39 -27 -216 -183 -414 -486 -507 -777 -60 -187 -72 -265 -72 -490
0 -158 4 -218 19 -285 67 -305 214 -553 448 -758 55 -48 127 -111 161 -141 88
-77 209 -150 500 -301 215 -111 314 -140 492 -147 160 -6 241 4 395 48 107 31
119 36 225 84 478 216 824 659 936 1201 23 107 23 124 29 1011 3 496 8 904 11
908 4 3 48 -15 99 -40 122 -61 227 -99 363 -131 94 -23 137 -27 267 -28 85 -1
181 3 213 7 l57 8 0 382 0 382 -80 43 c-76 41 -80 45 -80 78 0 24 -6 37 -18
42 -9 4 -89 46 -177 93 l-160 87 -100 6 c-55 4 -127 12 -160 19 l-60 12 -47
90 c-64 124 -128 338 -128 430 0 15 -5 35 -10 46 -9 15 -79 58 -142 87 -4 2
-5 -17 -2 -42 7 -45 6 -45 -27 -50 -47 -9 -520 -76 -530 -76 -5 0 -10 -732
-11 -1627 l-3 -1628 -22 -79 c-88 -309 -336 -525 -623 -543 -160 -10 -247 21
-398 139 -82 65 -96 81 -126 143 -138 286 -40 668 225 878 104 82 290 157 392
157 l27 0 0 -160 c0 -192 -16 -281 -70 -396 -62 -134 -155 -243 -270 -318 -48
-32 -51 -36 -25 -32 56 9 249 17 242 10 -7 -7 173 -104 194 -104 22 0 88 61
137 128 59 79 101 161 134 257 l23 70 3 1621 2 1622 -172 93 c-95 52 -177 95
-183 97 -7 2 -10 -338 -10 -1028z"/>
<path d="M1579 3383 c-13 -16 -12 -17 4 -4 9 7 17 15 17 17 0 8 -8 3 -21 -13z"/>
<path d="M1850 3210 c0 -5 7 -10 16 -10 8 0 12 5 9 10 -3 6 -10 10 -16 10 -5
0 -9 -4 -9 -10z"/>
</g>
</svg>
